<svg width="266" height="108" viewBox="0 0 266 108" fill="none" xmlns="http://www.w3.org/2000/svg">
<path d="M61.8 13V48H56.45L37.15 24.3V48H30.7V13H36.05L55.35 36.7V13H61.8ZM145.62 25.2C147.42 22.4 150.587 21 155.12 21V26.95C154.587 26.85 154.104 26.8 153.67 26.8C151.237 26.8 149.337 27.5167 147.97 28.95C146.604 30.35 145.92 32.3833 145.92 35.05V48H139.67V21.3H145.62V25.2ZM177.449 46.55C176.715 47.15 175.815 47.6 174.749 47.9C173.715 48.2 172.615 48.35 171.449 48.35C168.515 48.35 166.249 47.5833 164.649 46.05C163.049 44.5167 162.249 42.2833 162.249 39.35V26.5H157.849V21.5H162.249V15.4H168.499V21.5H175.649V26.5H168.499V39.2C168.499 40.5 168.815 41.5 169.449 42.2C170.082 42.8667 170.999 43.2 172.199 43.2C173.599 43.2 174.765 42.8333 175.699 42.1L177.449 46.55ZM182.59 21.3H188.84V48H182.59V21.3ZM185.74 16.9C184.607 16.9 183.657 16.55 182.89 15.85C182.124 15.1167 181.74 14.2167 181.74 13.15C181.74 12.0833 182.124 11.2 182.89 10.5C183.657 9.76667 184.607 9.4 185.74 9.4C186.874 9.4 187.824 9.75 188.59 10.45C189.357 11.1167 189.74 11.9667 189.74 13C189.74 14.1 189.357 15.0333 188.59 15.8C187.857 16.5333 186.907 16.9 185.74 16.9ZM207.893 15.6C205.26 15.6 203.943 17.0333 203.943 19.9V21.5H211.293V26.5H204.143V48H197.893V26.5H193.493V21.5H197.893V19.8C197.893 16.9333 198.727 14.6833 200.393 13.05C202.06 11.3833 204.41 10.55 207.443 10.55C209.843 10.55 211.727 11.0333 213.093 12L211.343 16.7C210.277 15.9667 209.127 15.6 207.893 15.6ZM240.989 21.3L228.489 50.15C227.322 53.05 225.905 55.0833 224.239 56.25C222.572 57.45 220.555 58.05 218.189 58.05C216.855 58.05 215.539 57.8333 214.239 57.4C212.939 56.9667 211.872 56.3667 211.039 55.6L213.539 51C214.139 51.5667 214.839 52.0167 215.639 52.35C216.472 52.6833 217.305 52.85 218.139 52.85C219.239 52.85 220.139 52.5667 220.839 52C221.572 51.4333 222.239 50.4833 222.839 49.15L223.289 48.1L211.639 21.3H218.139L226.539 41.05L234.989 21.3H240.989Z" fill="white"/>
<path d="M134.344 13.5783L108.193 5.73058C106.768 5.30294 105.231 5.30294 103.807 5.73058L77.6552 13.5783C75.4483 14.2404 75.4483 17.091 77.6552 17.7531L82.2142 19.1212C81.2139 20.329 80.5989 21.8024 80.538 23.4159C79.6352 23.9214 78.9995 24.8334 78.9995 25.9222C78.9995 26.9094 79.532 27.7399 80.2989 28.2711L77.9055 38.7909C77.6974 39.7057 78.4099 40.5738 79.3689 40.5738H84.6293C85.5893 40.5738 86.3018 39.7057 86.0936 38.7909L83.7002 28.2711C84.4671 27.7399 84.9996 26.9094 84.9996 25.9222C84.9996 24.8628 84.393 23.9763 83.5314 23.4617C83.6027 22.0863 84.3227 20.8702 85.4711 20.0992L103.806 25.6017C104.655 25.8563 106.285 26.1741 108.192 25.6017L134.344 17.754C136.552 17.091 136.552 14.2413 134.344 13.5783ZM109.074 28.4029C106.399 29.2051 104.12 28.7619 102.925 28.4029L89.329 24.3234L87.9996 34.7132C87.9996 37.9502 96.0584 40.5738 106 40.5738C115.941 40.5738 124 37.9502 124 34.7132L122.67 24.3225L109.074 28.4029Z" fill="#F5C42F"/>
<path d="M9.50195 99.2891H3.54492L2.20703 103H0.273438L5.70312 88.7812H7.34375L12.7832 103H10.8594L9.50195 99.2891ZM4.11133 97.7461H8.94531L6.52344 91.0957L4.11133 97.7461ZM20.8203 101.955C20.1172 102.782 19.0853 103.195 17.7246 103.195C16.5983 103.195 15.7389 102.87 15.1465 102.219C14.5605 101.561 14.2643 100.591 14.2578 99.3086V92.4336H16.0645V99.2598C16.0645 100.861 16.7155 101.662 18.0176 101.662C19.3978 101.662 20.3158 101.148 20.7715 100.119V92.4336H22.5781V103H20.8594L20.8203 101.955ZM27.7832 89.875V92.4336H29.7559V93.8301H27.7832V100.383C27.7832 100.806 27.8711 101.125 28.0469 101.34C28.2227 101.548 28.5221 101.652 28.9453 101.652C29.1536 101.652 29.4401 101.613 29.8047 101.535V103C29.3294 103.13 28.8672 103.195 28.418 103.195C27.6107 103.195 27.002 102.951 26.5918 102.463C26.1816 101.975 25.9766 101.281 25.9766 100.383V93.8301H24.0527V92.4336H25.9766V89.875H27.7832ZM31.2012 97.6191C31.2012 96.584 31.403 95.653 31.8066 94.8262C32.2168 93.9993 32.7832 93.3613 33.5059 92.9121C34.235 92.4629 35.0651 92.2383 35.9961 92.2383C37.4349 92.2383 38.597 92.7363 39.4824 93.7324C40.3743 94.7285 40.8203 96.0534 40.8203 97.707V97.834C40.8203 98.8626 40.6217 99.7871 40.2246 100.607C39.834 101.421 39.2708 102.056 38.5352 102.512C37.806 102.967 36.9661 103.195 36.0156 103.195C34.5833 103.195 33.4212 102.697 32.5293 101.701C31.6439 100.705 31.2012 99.3867 31.2012 97.7461V97.6191ZM33.0176 97.834C33.0176 99.0059 33.2878 99.9466 33.8281 100.656C34.375 101.366 35.1042 101.721 36.0156 101.721C36.9336 101.721 37.6628 101.363 38.2031 100.646C38.7435 99.9238 39.0137 98.9147 39.0137 97.6191C39.0137 96.4603 38.737 95.5228 38.1836 94.8066C37.6367 94.084 36.9076 93.7227 35.9961 93.7227C35.1042 93.7227 34.3848 94.0775 33.8379 94.7871C33.291 95.4967 33.0176 96.5124 33.0176 97.834ZM44.7852 92.4336L44.834 93.6055C45.6087 92.694 46.6536 92.2383 47.9688 92.2383C49.4466 92.2383 50.4525 92.8047 50.9863 93.9375C51.3379 93.4297 51.7936 93.0195 52.3535 92.707C52.9199 92.3945 53.5872 92.2383 54.3555 92.2383C56.6732 92.2383 57.8516 93.4655 57.8906 95.9199V103H56.084V96.0273C56.084 95.2721 55.9115 94.709 55.5664 94.3379C55.2214 93.9603 54.6419 93.7715 53.8281 93.7715C53.1576 93.7715 52.6009 93.9733 52.1582 94.377C51.7155 94.7741 51.4583 95.3112 51.3867 95.9883V103H49.5703V96.0762C49.5703 94.5397 48.8184 93.7715 47.3145 93.7715C46.1296 93.7715 45.319 94.276 44.8828 95.2852V103H43.0762V92.4336H44.7852ZM67.1484 103C67.0443 102.792 66.9596 102.421 66.8945 101.887C66.0547 102.759 65.0521 103.195 63.8867 103.195C62.8451 103.195 61.9889 102.902 61.3184 102.316C60.6543 101.724 60.3223 100.975 60.3223 100.07C60.3223 98.9701 60.7389 98.1172 61.5723 97.5117C62.4121 96.8997 63.5905 96.5938 65.1074 96.5938H66.8652V95.7637C66.8652 95.1322 66.6764 94.6309 66.2988 94.2598C65.9212 93.8822 65.3646 93.6934 64.6289 93.6934C63.9844 93.6934 63.444 93.8561 63.0078 94.1816C62.5716 94.5072 62.3535 94.901 62.3535 95.3633H60.5371C60.5371 94.8359 60.7227 94.3281 61.0938 93.8398C61.4714 93.3451 61.9792 92.9544 62.6172 92.668C63.2617 92.3815 63.9681 92.2383 64.7363 92.2383C65.9538 92.2383 66.9076 92.5443 67.5977 93.1562C68.2878 93.7617 68.6458 94.5983 68.6719 95.666V100.529C68.6719 101.499 68.7956 102.271 69.043 102.844V103H67.1484ZM64.1504 101.623C64.7168 101.623 65.2539 101.477 65.7617 101.184C66.2695 100.891 66.6374 100.51 66.8652 100.041V97.873H65.4492C63.2357 97.873 62.1289 98.5208 62.1289 99.8164C62.1289 100.383 62.3177 100.826 62.6953 101.145C63.0729 101.464 63.5579 101.623 64.1504 101.623ZM73.9551 89.875V92.4336H75.9277V93.8301H73.9551V100.383C73.9551 100.806 74.043 101.125 74.2188 101.34C74.3945 101.548 74.694 101.652 75.1172 101.652C75.3255 101.652 75.612 101.613 75.9766 101.535V103C75.5013 103.13 75.0391 103.195 74.5898 103.195C73.7826 103.195 73.1738 102.951 72.7637 102.463C72.3535 101.975 72.1484 101.281 72.1484 100.383V93.8301H70.2246V92.4336H72.1484V89.875H73.9551ZM82.4316 103.195C80.9993 103.195 79.834 102.727 78.9355 101.789C78.0371 100.845 77.5879 99.5853 77.5879 98.0098V97.6777C77.5879 96.6296 77.7865 95.6953 78.1836 94.875C78.5872 94.0482 79.1471 93.4036 79.8633 92.9414C80.5859 92.4727 81.3672 92.2383 82.207 92.2383C83.5807 92.2383 84.6484 92.6908 85.4102 93.5957C86.1719 94.5007 86.5527 95.7962 86.5527 97.4824V98.2344H79.3945C79.4206 99.276 79.7233 100.119 80.3027 100.764C80.8887 101.402 81.6309 101.721 82.5293 101.721C83.1673 101.721 83.7077 101.59 84.1504 101.33C84.5931 101.07 84.9805 100.725 85.3125 100.295L86.416 101.154C85.5306 102.515 84.2025 103.195 82.4316 103.195ZM82.207 93.7227C81.4779 93.7227 80.8659 93.9896 80.3711 94.5234C79.8763 95.0508 79.5703 95.793 79.4531 96.75H84.7461V96.6133C84.694 95.6953 84.4466 94.9857 84.0039 94.4844C83.5612 93.9766 82.9622 93.7227 82.207 93.7227ZM97.0703 100.354L99.5312 92.4336H101.465L97.2168 104.631C96.5592 106.389 95.5143 107.268 94.082 107.268L93.7402 107.238L93.0664 107.111V105.646L93.5547 105.686C94.1667 105.686 94.6419 105.562 94.9805 105.314C95.3255 105.067 95.6087 104.615 95.8301 103.957L96.2305 102.883L92.4609 92.4336H94.4336L97.0703 100.354ZM102.451 97.6191C102.451 96.584 102.653 95.653 103.057 94.8262C103.467 93.9993 104.033 93.3613 104.756 92.9121C105.485 92.4629 106.315 92.2383 107.246 92.2383C108.685 92.2383 109.847 92.7363 110.732 93.7324C111.624 94.7285 112.07 96.0534 112.07 97.707V97.834C112.07 98.8626 111.872 99.7871 111.475 100.607C111.084 101.421 110.521 102.056 109.785 102.512C109.056 102.967 108.216 103.195 107.266 103.195C105.833 103.195 104.671 102.697 103.779 101.701C102.894 100.705 102.451 99.3867 102.451 97.7461V97.6191ZM104.268 97.834C104.268 99.0059 104.538 99.9466 105.078 100.656C105.625 101.366 106.354 101.721 107.266 101.721C108.184 101.721 108.913 101.363 109.453 100.646C109.993 99.9238 110.264 98.9147 110.264 97.6191C110.264 96.4603 109.987 95.5228 109.434 94.8066C108.887 94.084 108.158 93.7227 107.246 93.7227C106.354 93.7227 105.635 94.0775 105.088 94.7871C104.541 95.4967 104.268 96.5124 104.268 97.834ZM120.859 101.955C120.156 102.782 119.124 103.195 117.764 103.195C116.637 103.195 115.778 102.87 115.186 102.219C114.6 101.561 114.303 100.591 114.297 99.3086V92.4336H116.104V99.2598C116.104 100.861 116.755 101.662 118.057 101.662C119.437 101.662 120.355 101.148 120.811 100.119V92.4336H122.617V103H120.898L120.859 101.955ZM130.479 94.0547C130.205 94.0091 129.909 93.9863 129.59 93.9863C128.405 93.9863 127.601 94.4909 127.178 95.5V103H125.371V92.4336H127.129L127.158 93.6543C127.751 92.7103 128.59 92.2383 129.678 92.2383C130.029 92.2383 130.296 92.2839 130.479 92.375V94.0547ZM141.582 96.6621C139.974 96.1999 138.802 95.6335 138.066 94.9629C137.337 94.2858 136.973 93.4525 136.973 92.4629C136.973 91.3431 137.419 90.4186 138.311 89.6895C139.209 88.9538 140.374 88.5859 141.807 88.5859C142.783 88.5859 143.652 88.7747 144.414 89.1523C145.182 89.5299 145.775 90.0508 146.191 90.7148C146.615 91.3789 146.826 92.1048 146.826 92.8926H144.941C144.941 92.0332 144.668 91.3594 144.121 90.8711C143.574 90.3763 142.803 90.1289 141.807 90.1289C140.882 90.1289 140.16 90.334 139.639 90.7441C139.124 91.1478 138.867 91.7109 138.867 92.4336C138.867 93.013 139.111 93.5046 139.6 93.9082C140.094 94.3053 140.931 94.6699 142.109 95.002C143.294 95.334 144.219 95.7018 144.883 96.1055C145.553 96.5026 146.048 96.9681 146.367 97.502C146.693 98.0358 146.855 98.6641 146.855 99.3867C146.855 100.539 146.406 101.464 145.508 102.16C144.609 102.85 143.408 103.195 141.904 103.195C140.928 103.195 140.016 103.01 139.17 102.639C138.324 102.261 137.669 101.747 137.207 101.096C136.751 100.445 136.523 99.7057 136.523 98.8789H138.408C138.408 99.7383 138.724 100.419 139.355 100.92C139.993 101.415 140.843 101.662 141.904 101.662C142.894 101.662 143.652 101.46 144.18 101.057C144.707 100.653 144.971 100.103 144.971 99.4062C144.971 98.7096 144.727 98.1725 144.238 97.7949C143.75 97.4108 142.865 97.0332 141.582 96.6621ZM153.223 101.721C153.867 101.721 154.43 101.525 154.912 101.135C155.394 100.744 155.661 100.256 155.713 99.6699H157.422C157.389 100.275 157.181 100.852 156.797 101.398C156.413 101.945 155.898 102.382 155.254 102.707C154.616 103.033 153.939 103.195 153.223 103.195C151.784 103.195 150.638 102.717 149.785 101.76C148.939 100.796 148.516 99.4811 148.516 97.8145V97.5117C148.516 96.4831 148.704 95.5684 149.082 94.7676C149.46 93.9668 150 93.3451 150.703 92.9023C151.413 92.4596 152.249 92.2383 153.213 92.2383C154.398 92.2383 155.381 92.5931 156.162 93.3027C156.95 94.0124 157.37 94.9336 157.422 96.0664H155.713C155.661 95.3828 155.4 94.8229 154.932 94.3867C154.469 93.944 153.896 93.7227 153.213 93.7227C152.295 93.7227 151.582 94.0547 151.074 94.7188C150.573 95.3763 150.322 96.3301 150.322 97.5801V97.9219C150.322 99.1393 150.573 100.077 151.074 100.734C151.576 101.392 152.292 101.721 153.223 101.721ZM161.26 93.7129C162.061 92.7298 163.102 92.2383 164.385 92.2383C166.618 92.2383 167.744 93.498 167.764 96.0176V103H165.957V96.0078C165.951 95.2461 165.775 94.6829 165.43 94.3184C165.091 93.9538 164.561 93.7715 163.838 93.7715C163.252 93.7715 162.738 93.9277 162.295 94.2402C161.852 94.5527 161.507 94.9629 161.26 95.4707V103H159.453V88H161.26V93.7129ZM169.99 97.6191C169.99 96.584 170.192 95.653 170.596 94.8262C171.006 93.9993 171.572 93.3613 172.295 92.9121C173.024 92.4629 173.854 92.2383 174.785 92.2383C176.224 92.2383 177.386 92.7363 178.271 93.7324C179.163 94.7285 179.609 96.0534 179.609 97.707V97.834C179.609 98.8626 179.411 99.7871 179.014 100.607C178.623 101.421 178.06 102.056 177.324 102.512C176.595 102.967 175.755 103.195 174.805 103.195C173.372 103.195 172.21 102.697 171.318 101.701C170.433 100.705 169.99 99.3867 169.99 97.7461V97.6191ZM171.807 97.834C171.807 99.0059 172.077 99.9466 172.617 100.656C173.164 101.366 173.893 101.721 174.805 101.721C175.723 101.721 176.452 101.363 176.992 100.646C177.533 99.9238 177.803 98.9147 177.803 97.6191C177.803 96.4603 177.526 95.5228 176.973 94.8066C176.426 94.084 175.697 93.7227 174.785 93.7227C173.893 93.7227 173.174 94.0775 172.627 94.7871C172.08 95.4967 171.807 96.5124 171.807 97.834ZM181.396 97.6191C181.396 96.584 181.598 95.653 182.002 94.8262C182.412 93.9993 182.979 93.3613 183.701 92.9121C184.43 92.4629 185.26 92.2383 186.191 92.2383C187.63 92.2383 188.792 92.7363 189.678 93.7324C190.57 94.7285 191.016 96.0534 191.016 97.707V97.834C191.016 98.8626 190.817 99.7871 190.42 100.607C190.029 101.421 189.466 102.056 188.73 102.512C188.001 102.967 187.161 103.195 186.211 103.195C184.779 103.195 183.617 102.697 182.725 101.701C181.839 100.705 181.396 99.3867 181.396 97.7461V97.6191ZM183.213 97.834C183.213 99.0059 183.483 99.9466 184.023 100.656C184.57 101.366 185.299 101.721 186.211 101.721C187.129 101.721 187.858 101.363 188.398 100.646C188.939 99.9238 189.209 98.9147 189.209 97.6191C189.209 96.4603 188.932 95.5228 188.379 94.8066C187.832 94.084 187.103 93.7227 186.191 93.7227C185.299 93.7227 184.58 94.0775 184.033 94.7871C183.486 95.4967 183.213 96.5124 183.213 97.834ZM195.244 103H193.438V88H195.244V103ZM213.887 101.135C213.405 101.825 212.731 102.342 211.865 102.688C211.006 103.026 210.003 103.195 208.857 103.195C207.699 103.195 206.67 102.925 205.771 102.385C204.873 101.838 204.176 101.063 203.682 100.061C203.193 99.0579 202.943 97.8958 202.93 96.5742V95.334C202.93 93.1921 203.428 91.5319 204.424 90.3535C205.426 89.1751 206.833 88.5859 208.643 88.5859C210.127 88.5859 211.322 88.9668 212.227 89.7285C213.132 90.4837 213.685 91.5579 213.887 92.9512H212.012C211.66 91.0697 210.54 90.1289 208.652 90.1289C207.396 90.1289 206.442 90.5716 205.791 91.457C205.146 92.3359 204.821 93.612 204.814 95.2852V96.4473C204.814 98.0423 205.179 99.3118 205.908 100.256C206.637 101.193 207.624 101.662 208.867 101.662C209.57 101.662 210.186 101.584 210.713 101.428C211.24 101.271 211.676 101.008 212.021 100.637V97.4434H208.73V95.9199H213.887V101.135ZM221.846 94.0547C221.572 94.0091 221.276 93.9863 220.957 93.9863C219.772 93.9863 218.968 94.4909 218.545 95.5V103H216.738V92.4336H218.496L218.525 93.6543C219.118 92.7103 219.958 92.2383 221.045 92.2383C221.396 92.2383 221.663 92.2839 221.846 92.375V94.0547ZM222.842 97.6191C222.842 96.584 223.044 95.653 223.447 94.8262C223.857 93.9993 224.424 93.3613 225.146 92.9121C225.876 92.4629 226.706 92.2383 227.637 92.2383C229.076 92.2383 230.238 92.7363 231.123 93.7324C232.015 94.7285 232.461 96.0534 232.461 97.707V97.834C232.461 98.8626 232.262 99.7871 231.865 100.607C231.475 101.421 230.911 102.056 230.176 102.512C229.447 102.967 228.607 103.195 227.656 103.195C226.224 103.195 225.062 102.697 224.17 101.701C223.285 100.705 222.842 99.3867 222.842 97.7461V97.6191ZM224.658 97.834C224.658 99.0059 224.928 99.9466 225.469 100.656C226.016 101.366 226.745 101.721 227.656 101.721C228.574 101.721 229.303 101.363 229.844 100.646C230.384 99.9238 230.654 98.9147 230.654 97.6191C230.654 96.4603 230.378 95.5228 229.824 94.8066C229.277 94.084 228.548 93.7227 227.637 93.7227C226.745 93.7227 226.025 94.0775 225.479 94.7871C224.932 95.4967 224.658 96.5124 224.658 97.834ZM244.082 100.51L246.113 92.4336H247.92L244.844 103H243.379L240.811 94.9922L238.311 103H236.846L233.779 92.4336H235.576L237.656 100.344L240.117 92.4336H241.572L244.082 100.51ZM252.217 89.875V92.4336H254.189V93.8301H252.217V100.383C252.217 100.806 252.305 101.125 252.48 101.34C252.656 101.548 252.956 101.652 253.379 101.652C253.587 101.652 253.874 101.613 254.238 101.535V103C253.763 103.13 253.301 103.195 252.852 103.195C252.044 103.195 251.436 102.951 251.025 102.463C250.615 101.975 250.41 101.281 250.41 100.383V93.8301H248.486V92.4336H250.41V89.875H252.217ZM258.115 93.7129C258.916 92.7298 259.958 92.2383 261.24 92.2383C263.473 92.2383 264.6 93.498 264.619 96.0176V103H262.812V96.0078C262.806 95.2461 262.63 94.6829 262.285 94.3184C261.947 93.9538 261.416 93.7715 260.693 93.7715C260.107 93.7715 259.593 93.9277 259.15 94.2402C258.708 94.5527 258.363 94.9629 258.115 95.4707V103H256.309V88H258.115V93.7129Z" fill="white"/>
</svg>
